# xmcd CD database file
#
# Track frame offsets:
#	150
#	18735
#	30534
#	45201
#	50934
#	68936
#	77679
#	86250
#	96600
#	120863
#	143056
#	160458
#	179534
#	190425
#	220163
#
# Disc length: 2993 seconds
#
# Revision: 8
# Processed by: cddbd v1.5.1PL0 Copyright (c) Steve Scherf et al.
# Submitted via: CDex 1.51
#
DISCID=d00baf0f
DTITLE=George Winston - December (Piano Solos, 20th Anniversary Edition)
DYEAR=2001
DGENRE=Jazz
TTITLE0=Thanksgiving
TTITLE1=Jesus, Jesus, Rest Your Head
TTITLE2=Joy
TTITLE3=Prelude
TTITLE4=Carol of the Bells
TTITLE5=Night - Part One: Snow
TTITLE6=Night - Part Two: Midnight
TTITLE7=Night - Part Three: Minstrels
TTITLE8=Variations on the Kanon by Pachelbel
TTITLE9=The Holly and the Ivy
TTITLE10=Some Children See Him
TTITLE11=Peace
TTITLE12=A Christmas Song
TTITLE13=Sleep Baby Mine
TTITLE14=Data
EXTD=YEAR: 2001
EXTT0=
EXTT1=
EXTT2=
EXTT3=
EXTT4=
EXTT5=
EXTT6=
EXTT7=
EXTT8=
EXTT9=
EXTT10=
EXTT11=
EXTT12=
EXTT13=
EXTT14=
PLAYORDER=
